<svg width="40" height="40" viewBox="0 0 40 40" fill="none" xmlns="http://www.w3.org/2000/svg">
<path d="M11.667 15L19.6182 7.89189C21.7748 5.96396 22.8531 5 24.167 5C25.4809 5 26.5592 5.96397 28.7158 7.8919L36.667 15" stroke="white" stroke-width="1.5" stroke-linecap="round" stroke-linejoin="round"/>
<path d="M14.167 13.3335V33.3335M34.167 33.3335V13.3335" stroke="white" stroke-width="1.5" stroke-linecap="round" stroke-linejoin="round"/>
<ellipse cx="5.83301" cy="19.9998" rx="2.5" ry="3.33333" stroke="white" stroke-width="1.5"/>
<path d="M5.83301 23.3335L5.83301 33.3335" stroke="white" stroke-width="1.5" stroke-linecap="round"/>
<path d="M3.33301 33.3335H36.6663" stroke="white" stroke-width="1.5" stroke-linecap="round" stroke-linejoin="round"/>
<path d="M20 33.3335V26.6664C20 25.0953 20 24.3098 20.4882 23.8217C20.9763 23.3335 21.762 23.3335 23.3333 23.3335H25C26.5713 23.3335 27.357 23.3335 27.8452 23.8217C28.3333 24.3098 28.3333 25.0955 28.3333 26.6668V33.3335" stroke="white" stroke-width="1.5" stroke-linecap="round" stroke-linejoin="round"/>
<path d="M22.5 18.3335H25.8333M22.5 13.3335H25.8333" stroke="white" stroke-width="1.5" stroke-linecap="round" stroke-linejoin="round"/>
</svg>
